<svg width="156" height="47" viewBox="0 0 156 47" fill="none" xmlns="http://www.w3.org/2000/svg">
<path d="M10.445 31.28C7.34167 31.28 4.85667 30.6967 2.99 29.53C1.12333 28.34 0.19 26.5317 0.19 24.105C0.19 22.8217 0.411667 21.8417 0.855 21.165C1.29833 20.4883 1.95167 20.15 2.815 20.15C3.445 20.15 3.95833 20.3133 4.355 20.64C4.75167 20.9667 4.95 21.3867 4.95 21.9C4.95 22.3667 4.915 22.775 4.845 23.125C4.845 23.2183 4.82167 23.3817 4.775 23.615C4.75167 23.8483 4.74 24.0933 4.74 24.35C4.74 25.4 5.265 26.1817 6.315 26.695C7.38833 27.2083 8.88167 27.465 10.795 27.465C12.7783 27.465 14.33 27.115 15.45 26.415C16.57 25.6917 17.13 24.6883 17.13 23.405C17.13 22.6117 16.8733 21.935 16.36 21.375C15.8467 20.7917 15.205 20.3133 14.435 19.94C13.665 19.5433 12.58 19.065 11.18 18.505C9.38333 17.805 7.91333 17.14 6.77 16.51C5.65 15.88 4.68167 15.0283 3.865 13.955C3.07167 12.8583 2.675 11.505 2.675 9.895C2.675 8.215 3.11833 6.72167 4.005 5.415C4.915 4.10833 6.21 3.09333 7.89 2.37C9.59333 1.64667 11.5883 1.285 13.875 1.285C15.5783 1.285 17.1417 1.54167 18.565 2.055C19.9883 2.545 21.12 3.30333 21.96 4.33C22.8233 5.35667 23.255 6.61666 23.255 8.11C23.255 9.58 23.0333 10.6883 22.59 11.435C22.1467 12.1817 21.4933 12.555 20.63 12.555C20.0233 12.555 19.51 12.3683 19.09 11.995C18.6933 11.6217 18.495 11.1783 18.495 10.665C18.495 10.2217 18.53 9.81333 18.6 9.44C18.67 8.74 18.705 8.29667 18.705 8.11C18.705 7.13 18.2267 6.38333 17.27 5.87C16.3133 5.35667 15.1233 5.1 13.7 5.1C11.6933 5.1 10.1533 5.47333 9.08 6.22C8.03 6.94333 7.505 7.97 7.505 9.3C7.505 10.1867 7.77333 10.945 8.31 11.575C8.87 12.205 9.55833 12.73 10.375 13.15C11.1917 13.57 12.335 14.0717 13.805 14.655C15.5783 15.3783 17.0017 16.0317 18.075 16.615C19.1483 17.1983 20.0583 17.9917 20.805 18.995C21.575 19.9983 21.96 21.235 21.96 22.705C21.96 25.4583 20.91 27.5817 18.81 29.075C16.7333 30.545 13.945 31.28 10.445 31.28ZM42.7976 20.255C43.1009 20.255 43.3342 20.4067 43.4976 20.71C43.6609 21.0133 43.7426 21.3983 43.7426 21.865C43.7426 22.985 43.4042 23.65 42.7276 23.86C41.3276 24.35 39.7876 24.63 38.1076 24.7C37.6642 26.66 36.7892 28.235 35.4826 29.425C34.1759 30.5917 32.6942 31.175 31.0376 31.175C29.6376 31.175 28.4359 30.8367 27.4326 30.16C26.4526 29.4833 25.7059 28.585 25.1926 27.465C24.6792 26.345 24.4226 25.1317 24.4226 23.825C24.4226 22.0517 24.7609 20.4767 25.4376 19.1C26.1142 17.7 27.0476 16.615 28.2376 15.845C29.4276 15.0517 30.7459 14.655 32.1926 14.655C33.9659 14.655 35.3892 15.2733 36.4626 16.51C37.5592 17.7233 38.2009 19.2283 38.3876 21.025C39.4842 20.955 40.7909 20.7217 42.3076 20.325C42.4942 20.2783 42.6576 20.255 42.7976 20.255ZM31.3176 27.465C32.0642 27.465 32.7059 27.1617 33.2426 26.555C33.8026 25.9483 34.1759 25.0733 34.3626 23.93C33.6392 23.44 33.0792 22.7983 32.6826 22.005C32.3092 21.2117 32.1226 20.3717 32.1226 19.485C32.1226 19.1117 32.1576 18.7383 32.2276 18.365H32.0526C31.1192 18.365 30.3376 18.82 29.7076 19.73C29.1009 20.6167 28.7976 21.8767 28.7976 23.51C28.7976 24.7933 29.0426 25.7733 29.5326 26.45C30.0459 27.1267 30.6409 27.465 31.3176 27.465ZM44.3086 31.175C43.2586 31.175 42.3953 30.6967 41.7186 29.74C41.0653 28.76 40.7386 27.5467 40.7386 26.1C40.7386 24.35 40.8553 22.7517 41.0886 21.305C41.3219 19.835 41.7069 18.2833 42.2436 16.65C42.4769 15.95 42.8036 15.4483 43.2236 15.145C43.6436 14.8417 44.3086 14.69 45.2186 14.69C45.7319 14.69 46.0819 14.7717 46.2686 14.935C46.4786 15.0983 46.5836 15.3433 46.5836 15.67C46.5836 15.8567 46.4553 16.4867 46.1986 17.56C45.9653 18.4233 45.7786 19.205 45.6386 19.905C45.1719 22.355 44.9386 23.9883 44.9386 24.805C44.9386 25.295 44.9969 25.645 45.1136 25.855C45.2303 26.0417 45.4169 26.135 45.6736 26.135C46.0236 26.135 46.4553 25.785 46.9686 25.085C47.5053 24.385 48.0653 23.3233 48.6486 21.9C49.2553 20.4767 49.8386 18.7267 50.3986 16.65C50.5853 15.95 50.8653 15.4483 51.2386 15.145C51.6353 14.8417 52.2186 14.69 52.9886 14.69C53.5253 14.69 53.8986 14.76 54.1086 14.9C54.3186 15.0167 54.4236 15.25 54.4236 15.6C54.4236 16.1833 54.1319 17.7817 53.5486 20.395C52.8953 23.3817 52.5686 25.225 52.5686 25.925C52.5686 26.3683 52.6619 26.7183 52.8486 26.975C53.0353 27.2083 53.2803 27.325 53.5836 27.325C54.0503 27.325 54.5986 27.045 55.2286 26.485C55.8819 25.9017 56.7453 24.9683 57.8186 23.685C58.0986 23.3583 58.4136 23.195 58.7636 23.195C59.0669 23.195 59.3003 23.335 59.4636 23.615C59.6503 23.895 59.7436 24.28 59.7436 24.77C59.7436 25.7033 59.5219 26.4267 59.0786 26.94C58.0753 28.1767 56.9903 29.1917 55.8236 29.985C54.6803 30.7783 53.3736 31.175 51.9036 31.175C50.7836 31.175 49.9553 30.7433 49.4186 29.88C48.9053 29.0167 48.6486 27.8033 48.6486 26.24C48.2519 27.8267 47.6569 29.0517 46.8636 29.915C46.0703 30.755 45.2186 31.175 44.3086 31.175ZM75.5956 23.195C75.8989 23.195 76.1323 23.335 76.2956 23.615C76.4823 23.895 76.5756 24.28 76.5756 24.77C76.5756 25.7033 76.3539 26.4267 75.9106 26.94C74.9073 28.1767 73.8223 29.1917 72.6556 29.985C71.5123 30.7783 70.2056 31.175 68.7356 31.175C67.4989 31.175 66.4956 30.7317 65.7256 29.845C64.3956 30.7083 63.0073 31.1517 61.5606 31.175C61.2573 35.6783 60.5689 39.435 59.4956 42.445C58.4223 45.4783 56.8473 46.995 54.7706 46.995C53.5106 46.995 52.5773 46.54 51.9706 45.63C51.3639 44.72 51.0606 43.46 51.0606 41.85C51.0606 39.5633 51.5856 36.8917 52.6356 33.835C53.6856 30.8017 55.3073 27.4533 57.5006 23.79C57.5006 20.3833 57.4773 18.015 57.4306 16.685C57.4073 16.0083 57.6756 15.4717 58.2356 15.075C58.7956 14.6783 59.4956 14.48 60.3356 14.48C60.8256 14.48 61.1756 14.585 61.3856 14.795C61.6189 14.9817 61.7473 15.3667 61.7706 15.95C61.7706 16.5333 61.7823 16.965 61.8056 17.245C62.5523 16.3117 63.2873 15.6467 64.0106 15.25C64.7339 14.83 65.5039 14.62 66.3206 14.62C67.6273 14.62 68.6889 15.145 69.5056 16.195C70.3456 17.245 70.7656 18.6217 70.7656 20.325C70.7656 21.5617 70.5673 22.7633 70.1706 23.93C69.7739 25.0967 69.2256 26.1583 68.5256 27.115C69.0156 27.255 69.4239 27.325 69.7506 27.325C70.5206 27.325 71.2556 27.045 71.9556 26.485C72.6556 25.925 73.5539 24.9917 74.6506 23.685C74.9306 23.3583 75.2456 23.195 75.5956 23.195ZM61.7356 27.815C62.5756 27.6283 63.3456 27.1733 64.0456 26.45C64.7689 25.7033 65.3406 24.7933 65.7606 23.72C66.1806 22.6233 66.3906 21.48 66.3906 20.29C66.3906 19.59 66.2506 19.065 65.9706 18.715C65.6906 18.3417 65.3173 18.155 64.8506 18.155C64.0106 18.155 62.9956 19.0417 61.8056 20.815C61.7823 21.8417 61.7706 23.3467 61.7706 25.33C61.7706 26.4033 61.7589 27.2317 61.7356 27.815ZM55.0506 43.565C55.6806 43.565 56.2056 42.1883 56.6256 39.435C57.0456 36.705 57.3139 33.2983 57.4306 29.215C56.4273 31.5483 55.6339 33.7767 55.0506 35.9C54.4673 38.0233 54.1756 39.8083 54.1756 41.255C54.1756 42.0017 54.2689 42.5733 54.4556 42.97C54.6189 43.3667 54.8173 43.565 55.0506 43.565ZM100.881 10.14C100.881 12.1233 100.368 13.9433 99.3412 15.6C98.3145 17.2567 96.8212 18.61 94.8612 19.66C92.9012 20.71 90.5678 21.3283 87.8612 21.515L86.3562 29.95C85.7728 33.1933 84.1862 34.815 81.5962 34.815C80.1728 34.815 78.8545 34.395 77.6412 33.555C76.4512 32.715 75.4945 31.4317 74.7712 29.705C74.0478 27.9783 73.6862 25.855 73.6862 23.335C73.6862 18.5983 74.4445 14.585 75.9612 11.295C77.5012 7.98167 79.5545 5.50833 82.1212 3.875C84.7112 2.21833 87.5578 1.39 90.6612 1.39C92.8545 1.39 94.7095 1.775 96.2262 2.545C97.7662 3.315 98.9212 4.365 99.6912 5.695C100.485 7.00166 100.881 8.48333 100.881 10.14ZM88.4912 17.91C93.2745 17.3033 95.6662 14.8183 95.6662 10.455C95.6662 8.915 95.1528 7.66667 94.1262 6.71C93.1228 5.73 91.5595 5.24 89.4362 5.24C87.0328 5.24 84.9328 5.99833 83.1362 7.515C81.3628 9.03167 79.9862 11.1433 79.0062 13.85C78.0495 16.5333 77.5712 19.6017 77.5712 23.055C77.5712 24.5017 77.7112 25.785 77.9912 26.905C78.2945 28.025 78.6678 28.9 79.1112 29.53C79.5778 30.1367 80.0212 30.44 80.4412 30.44C81.0245 30.44 81.4678 29.635 81.7712 28.025L82.9262 21.41C82.0162 21.27 81.6195 21.2117 81.7362 21.235C81.0362 21.1183 80.5812 20.9083 80.3712 20.605C80.1612 20.2783 80.0562 19.87 80.0562 19.38C80.0562 18.8667 80.1962 18.4583 80.4762 18.155C80.7795 17.8517 81.1878 17.7 81.7012 17.7C81.9345 17.7 82.1095 17.7117 82.2262 17.735C82.7862 17.8283 83.2178 17.8867 83.5212 17.91C83.8245 16.09 84.2562 13.6517 84.8162 10.595C84.9562 9.80167 85.2712 9.24167 85.7612 8.915C86.2745 8.565 86.8695 8.39 87.5462 8.39C88.3162 8.39 88.8645 8.54167 89.1912 8.845C89.5412 9.125 89.7162 9.58 89.7162 10.21C89.7162 10.5833 89.6928 10.8867 89.6462 11.12L88.4912 17.91ZM118.027 20.255C118.33 20.255 118.564 20.4067 118.727 20.71C118.89 21.0133 118.972 21.3983 118.972 21.865C118.972 22.985 118.634 23.65 117.957 23.86C116.557 24.35 115.017 24.63 113.337 24.7C112.894 26.66 112.019 28.235 110.712 29.425C109.405 30.5917 107.924 31.175 106.267 31.175C104.867 31.175 103.665 30.8367 102.662 30.16C101.682 29.4833 100.935 28.585 100.422 27.465C99.9087 26.345 99.6521 25.1317 99.6521 23.825C99.6521 22.0517 99.9904 20.4767 100.667 19.1C101.344 17.7 102.277 16.615 103.467 15.845C104.657 15.0517 105.975 14.655 107.422 14.655C109.195 14.655 110.619 15.2733 111.692 16.51C112.789 17.7233 113.43 19.2283 113.617 21.025C114.714 20.955 116.02 20.7217 117.537 20.325C117.724 20.2783 117.887 20.255 118.027 20.255ZM106.547 27.465C107.294 27.465 107.935 27.1617 108.472 26.555C109.032 25.9483 109.405 25.0733 109.592 23.93C108.869 23.44 108.309 22.7983 107.912 22.005C107.539 21.2117 107.352 20.3717 107.352 19.485C107.352 19.1117 107.387 18.7383 107.457 18.365H107.282C106.349 18.365 105.567 18.82 104.937 19.73C104.33 20.6167 104.027 21.8767 104.027 23.51C104.027 24.7933 104.272 25.7733 104.762 26.45C105.275 27.1267 105.87 27.465 106.547 27.465ZM120.553 12.38C119.573 12.38 118.838 12.1583 118.348 11.715C117.858 11.2483 117.613 10.6067 117.613 9.79C117.613 8.97333 117.928 8.29667 118.558 7.76C119.211 7.2 120.016 6.92 120.973 6.92C121.836 6.92 122.536 7.13 123.073 7.55C123.61 7.97 123.878 8.565 123.878 9.335C123.878 10.2683 123.575 11.015 122.968 11.575C122.361 12.1117 121.556 12.38 120.553 12.38ZM120.273 31.175C118.756 31.175 117.648 30.6383 116.948 29.565C116.271 28.4917 115.933 27.0683 115.933 25.295C115.933 24.245 116.061 22.9033 116.318 21.27C116.598 19.6133 116.948 18.0733 117.368 16.65C117.578 15.9033 117.858 15.39 118.208 15.11C118.558 14.83 119.118 14.69 119.888 14.69C121.078 14.69 121.673 15.0867 121.673 15.88C121.673 16.4633 121.451 17.8167 121.008 19.94C120.448 22.5067 120.168 24.245 120.168 25.155C120.168 25.855 120.261 26.3917 120.448 26.765C120.635 27.1383 120.95 27.325 121.393 27.325C121.813 27.325 122.338 27.0333 122.968 26.45C123.598 25.8667 124.438 24.945 125.488 23.685C125.768 23.3583 126.083 23.195 126.433 23.195C126.736 23.195 126.97 23.335 127.133 23.615C127.32 23.895 127.413 24.28 127.413 24.77C127.413 25.7033 127.191 26.4267 126.748 26.94C124.438 29.7633 122.28 31.175 120.273 31.175ZM127.066 31.175C126.18 31.175 125.55 30.7083 125.176 29.775C124.826 28.8417 124.651 27.3483 124.651 25.295C124.651 22.2617 125.083 19.38 125.946 16.65C126.156 15.9733 126.495 15.4833 126.961 15.18C127.451 14.8533 128.128 14.69 128.991 14.69C129.458 14.69 129.785 14.7483 129.971 14.865C130.158 14.9817 130.251 15.2033 130.251 15.53C130.251 15.9033 130.076 16.7433 129.726 18.05C129.493 18.9833 129.306 19.8 129.166 20.5C129.026 21.2 128.91 22.0633 128.816 23.09C129.586 21.0833 130.45 19.45 131.406 18.19C132.363 16.93 133.296 16.0317 134.206 15.495C135.14 14.9583 135.991 14.69 136.761 14.69C138.278 14.69 139.036 15.4483 139.036 16.965C139.036 17.875 138.78 19.52 138.266 21.9C137.823 23.93 137.601 25.2717 137.601 25.925C137.601 26.8583 137.94 27.325 138.616 27.325C139.083 27.325 139.631 27.045 140.261 26.485C140.915 25.9017 141.778 24.9683 142.851 23.685C143.131 23.3583 143.446 23.195 143.796 23.195C144.1 23.195 144.333 23.335 144.496 23.615C144.683 23.895 144.776 24.28 144.776 24.77C144.776 25.7033 144.555 26.4267 144.111 26.94C143.108 28.1767 142.023 29.1917 140.856 29.985C139.713 30.7783 138.406 31.175 136.936 31.175C135.746 31.175 134.848 30.8367 134.241 30.16C133.635 29.46 133.331 28.4567 133.331 27.15C133.331 26.4967 133.495 25.33 133.821 23.65C134.125 22.18 134.276 21.165 134.276 20.605C134.276 20.2317 134.148 20.045 133.891 20.045C133.588 20.045 133.156 20.4417 132.596 21.235C132.06 22.005 131.5 23.0317 130.916 24.315C130.356 25.5983 129.901 26.9517 129.551 28.375C129.295 29.4717 128.991 30.2183 128.641 30.615C128.315 30.9883 127.79 31.175 127.066 31.175ZM147.72 18.015C147.673 19.1817 147.65 20.0917 147.65 20.745C147.65 22.425 147.731 23.7433 147.895 24.7C148.081 25.6333 148.373 26.31 148.77 26.73C149.19 27.1267 149.761 27.325 150.485 27.325C150.858 27.325 151.301 27.2083 151.815 26.975C152.328 26.7417 152.795 26.4383 153.215 26.065C153.471 25.8317 153.728 25.715 153.985 25.715C154.265 25.715 154.486 25.8783 154.65 26.205C154.836 26.5083 154.93 26.8817 154.93 27.325C154.93 27.7683 154.836 28.2 154.65 28.62C154.486 29.04 154.23 29.39 153.88 29.67C152.666 30.6733 151.29 31.175 149.75 31.175C147.533 31.175 145.911 30.2533 144.885 28.41C143.858 26.5433 143.345 24.1167 143.345 21.13C143.345 20.1033 143.38 19.065 143.45 18.015H142.085C141.385 18.015 140.906 17.8867 140.65 17.63C140.416 17.3733 140.3 16.965 140.3 16.405C140.3 15.0983 140.825 14.445 141.875 14.445H143.87C144.266 11.8783 144.873 9.53333 145.69 7.41C146.506 5.28667 147.486 3.595 148.63 2.335C149.796 1.075 151.045 0.444999 152.375 0.444999C153.355 0.444999 154.125 0.876666 154.685 1.74C155.245 2.60333 155.525 3.68833 155.525 4.995C155.525 8.61167 154.008 11.7617 150.975 14.445H154.895C155.268 14.445 155.536 14.5267 155.7 14.69C155.863 14.8533 155.945 15.1567 155.945 15.6C155.945 17.21 154.626 18.015 151.99 18.015H147.72ZM151.43 3.805C151.08 3.805 150.683 4.24833 150.24 5.135C149.82 5.99833 149.411 7.21167 149.015 8.775C148.641 10.315 148.326 12.03 148.07 13.92C149.446 12.73 150.473 11.4 151.15 9.93C151.85 8.43667 152.2 7.08333 152.2 5.87C152.2 4.49333 151.943 3.805 151.43 3.805Z" fill="#F7992A"/>
</svg>
