<svg width="401" height="300" viewBox="0 0 401 300" fill="none" xmlns="http://www.w3.org/2000/svg">
<g id="soup">
<g id="g126">
<path id="path128" d="M1.09621 288.45C4.41807 292.012 10.3267 292.079 15.0909 291.05C13.6486 292.467 8.35583 292.7 10.7717 295.301C14.928 299.018 21.0512 299.302 26.6261 299.11C35.1969 298.819 43.74 297.873 52.1678 296.286C55.148 295.724 58.2473 295.019 60.5639 293.062C62.201 291.68 63.3374 289.76 65.046 288.471C67.2712 286.795 70.1838 286.392 72.9613 286.178C82.3268 285.457 91.8116 286.276 100.915 288.589C103.438 289.23 105.993 289.99 108.588 289.775C111.179 289.559 113.865 288.103 114.659 285.628C115.784 282.144 112.82 278.704 109.792 276.648C103.716 272.522 96.5004 270.48 89.4315 268.501C83.1573 266.745 76.7679 264.976 70.2553 265.159C65.2248 265.306 60.3096 266.613 55.446 267.917C45.0393 270.703 34.0128 272.762 23.9956 276.752C21.3651 277.799 -3.70778 283.301 1.09621 288.45" fill="#E7F2F0"/>
</g>
<g id="g130">
<path id="path132" d="M333.424 230.472C333.424 241.557 285.683 250.542 226.787 250.542C167.892 250.542 120.151 241.557 120.151 230.472C120.151 219.388 167.892 210.402 226.787 210.402C285.683 210.402 333.424 219.388 333.424 230.472Z" fill="#E7F2F0"/>
</g>
<g id="g134">
<path id="path136" d="M27.8752 221.19C26.6524 216.084 27.4638 210.343 30.755 206.252C34.0499 202.164 40.0019 200.145 44.8669 202.119C45.6632 197.409 49.8451 193.982 54.1818 191.97C56.6426 190.827 59.2959 189.981 62.0095 189.981C64.7232 189.977 67.5124 190.891 69.392 192.846C69.7921 193.261 70.2299 193.755 70.8073 193.737C71.1583 193.725 71.4678 193.518 71.7735 193.336C74.6948 191.608 78.8238 192.306 81.0167 194.899C83.0548 197.311 83.3039 200.813 82.6132 203.897C81.4998 208.905 78.2162 213.234 74.2155 216.442C70.2072 219.654 65.5007 221.855 60.7565 223.814C56.3632 225.633 51.8945 227.271 47.3654 228.728C45.0556 229.471 42.708 230.169 40.2887 230.373C33.6385 230.928 29.4491 227.743 27.8752 221.19" fill="#71AD55"/>
</g>
<path id="path138" d="M6.10028 263.994C3.27782 258.883 5.4702 251.569 10.743 249.064C8.63165 246.975 7.80999 243.776 8.28899 240.843C8.768 237.91 10.4371 235.254 12.6222 233.238C15.0135 231.038 18.1602 229.509 21.4101 229.609C23.1861 226.469 27.3719 225.213 30.8576 226.149C34.347 227.081 37.1326 229.811 38.9418 232.936C41.8453 237.951 42.5012 244.366 40.0693 249.628C38.4628 253.102 35.6477 255.906 32.4899 258.069C29.837 259.889 27.0919 261.389 24.8995 263.791C23.3556 265.483 22.1286 267.918 20.0542 269.031C15.382 271.537 8.48058 268.298 6.10028 263.994" fill="#71AD55"/>
<g id="g140">
<path id="path142" d="M312.069 223.233V208.327L226.849 197.607L141.629 209.233V223.233C141.629 223.233 140.914 229.976 166.763 238.884C202.104 251.067 259.541 247.057 286.94 238.884C313.142 231.071 312.069 223.233 312.069 223.233" fill="#D3B594"/>
</g>
<g id="g144">
<path id="path146" d="M286.876 238.886C313.076 231.073 312.003 223.235 312.003 223.235V208.329L272.937 203.414C272.875 203.451 272.807 203.487 272.745 203.524C268.266 206.229 263.963 208.664 263.621 214.237C263.269 220.091 266.462 227.197 263.917 232.795C262.356 236.24 258.246 237.601 254.55 238.423C226.334 244.706 196.801 240.845 168.709 234.054C159.933 231.934 151.027 229.44 143.64 224.249C143.034 223.822 142.303 223.393 141.566 223.11V223.235C141.566 223.235 140.846 229.978 166.693 238.886C202.037 251.069 259.474 247.059 286.876 238.886" fill="#BFA388"/>
</g>
<g id="g148">
<path id="path150" d="M400.475 54.4632H225.996H53.2121C53.2121 54.4632 50.538 90.0965 70.4589 133.105C100.332 197.61 141.628 209.235 141.628 209.235L225.996 210.864L310.364 209.235C310.364 209.235 351.66 197.61 381.527 133.105C401.448 90.0965 400.475 54.4632 400.475 54.4632" fill="#D3B594"/>
</g>
<g id="g152">
<path id="path154" d="M400.415 54.4583H338.452C338.452 54.4583 346.502 90.6622 324.538 132.661C300.227 179.141 277.186 192.072 249.016 201.658C214.054 213.552 173.121 210.566 173.121 210.566C173.121 210.566 214.163 219.943 247.075 219.943C279.803 219.943 310.31 209.232 310.31 209.232C310.31 209.232 351.598 197.607 381.475 133.102C401.395 90.0953 400.415 54.4583 400.415 54.4583" fill="#BFA388"/>
</g>
<g id="g156">
<path id="path158" d="M53.2134 54.4595C54.7364 80.3789 118.599 103.061 226.851 103.061C338.624 103.061 399.595 85.8296 400.477 54.4595C401.359 23.0952 340.829 0.0843151 229.496 0.559532C135.729 0.960318 57.1869 7.63056 53.2134 54.4595Z" fill="#F7D3B0"/>
</g>
<g id="g160">
<path id="path162" d="M60.73 54.1773C62.1895 77.2973 123.286 97.5322 226.852 97.5322C333.786 97.5322 392.117 82.1644 392.963 54.1773C393.809 26.1902 335.898 5.65995 229.385 6.08589C139.671 6.44368 64.535 12.3955 60.73 54.1773" fill="#E2BFA3"/>
</g>
<g id="g164">
<path id="path166" d="M141.9 180.239C140.763 180.239 139.626 180.126 138.511 179.915C128.62 178.05 121.623 169.397 116.023 161.036C108.242 149.406 101.362 137.112 96.4529 124.009C94.6593 119.23 93.1351 113.892 94.933 109.113C96.5708 104.755 100.238 103.062 104.743 103.062C115.732 103.062 131.702 113.159 135.26 119.31C138.182 124.367 138.658 130.409 139.951 136.106C141.896 144.678 145.79 152.707 150.414 160.185C152.304 163.242 154.397 166.475 154.308 170.067C154.224 173.599 151.9 176.858 148.809 178.568C146.708 179.734 144.308 180.239 141.9 180.239" fill="#E4D1BD"/>
</g>
<g id="g168">
<path id="path170" d="M180.045 229.916C178.578 229.916 177.086 229.675 175.646 229.413C168.694 228.152 161.725 226.487 155.458 223.225C153.947 222.439 152.411 221.498 151.585 220.006C150.759 218.517 150.935 216.349 152.384 215.443C153.073 215.011 153.925 214.931 154.742 214.909C154.972 214.9 155.206 214.896 155.431 214.896C163.417 214.896 171.839 219.025 179.965 219.776C182.536 220.015 185.557 220.425 186.745 222.713C187.995 225.12 186.162 228.205 183.662 229.257C182.514 229.741 181.29 229.916 180.045 229.916Z" fill="#E4D1BD"/>
</g>
<g id="g172">
<path id="path174" d="M60.7319 54.2556C61.9038 72.7904 101.399 89.4683 170.373 95.3579C166.667 92.8461 163.07 90.1878 159.584 87.383C138.24 70.2011 121.119 47.7585 110.343 22.5586C109.434 20.4431 108.448 18.2157 107.508 15.9408C80.0811 22.886 62.5199 34.6092 60.7319 54.2556" fill="#CEAD97"/>
</g>
<g id="g176">
<path id="path178" d="M387.19 67.4442C370.489 47.2299 315.952 33.6353 229.067 33.9848C152.518 34.2893 86.5802 38.6649 66.5181 65.9049C84.4544 83.7341 141.015 97.5317 226.536 97.5317C315.135 97.5317 370.376 86.9819 387.19 67.4442Z" fill="#629B4B"/>
</g>
<g id="g180">
<path id="path182" d="M125.626 80.478C123.421 79.6615 121.7 77.5045 121.67 75.1554C121.644 72.8062 123.525 70.5008 125.866 70.313C124.717 67.7805 125.643 64.6803 127.49 62.6063C129.337 60.5323 131.94 59.3009 134.538 58.3185C138.101 56.9736 142.292 56.0479 145.567 57.9953C149.833 53.8822 156.308 53.0002 162.212 53.5242C163.544 53.6377 164.971 53.8647 165.915 54.8122C166.858 55.7554 166.906 57.6548 165.696 58.2224C169.342 56.5064 173.914 56.943 177.171 59.3227C178.35 60.1873 179.407 61.3837 179.582 62.8334C179.826 64.807 178.311 66.6627 176.49 67.4705C174.669 68.2826 172.613 68.2826 170.617 68.2695C168.277 72.0247 162.037 72.3652 159.304 68.8852C158.304 70.3741 156.365 71.0029 154.571 70.9068C152.78 70.8064 151.086 70.0991 149.436 69.4004C147.436 68.5533 145.436 67.7106 143.441 66.8636C144.227 68.5752 143.799 70.7715 142.423 72.0596C141.044 73.3477 138.825 73.6359 137.17 72.7364C138.467 74.2341 138.528 76.6618 137.31 78.225C135.843 80.1025 134.241 79.4214 132.306 79.81C129.918 80.2903 128.18 81.4212 125.626 80.478" fill="#537F3E"/>
</g>
<g id="g184">
<path id="path186" d="M166.504 85.8517C166.981 86.1727 167.48 86.5111 168.048 86.5935C168.477 86.6542 168.907 86.5674 169.332 86.4807C171.266 86.0816 173.201 85.6825 175.136 85.2791C167.978 82.759 163.593 74.1878 165.736 66.9092C163.988 67.0394 162.235 67.1695 160.487 67.2953C160.683 70.683 161.125 74.0533 161.823 77.3716C159.264 73.8798 156.709 70.3881 154.154 66.9006C153.686 66.263 153.213 65.6166 152.567 65.1612C150.606 63.7688 147.908 64.5756 145.661 65.4258C147.808 68.7658 150.151 71.9713 152.68 75.0293C146.728 73.1251 140.521 72.032 134.279 71.7804C133.707 71.7588 135.038 74.0664 135.385 74.3006C136.275 74.9035 138.552 74.7647 139.628 74.9599C142.851 75.5325 146.03 76.3393 149.14 77.3586C155.282 79.3756 161.147 82.2341 166.504 85.8517" fill="#537F3E"/>
</g>
<g id="g188">
<path id="path190" d="M278.89 74.9139C276.438 73.9468 274.461 71.2566 275.207 68.7303C276.116 65.6754 280.011 64.851 283.198 64.7188C283.954 61.5689 287.347 59.8459 290.497 59.0637C294.355 58.1071 298.414 57.9274 302.351 58.551C303.62 58.7519 304.925 59.0531 305.956 59.8247C306.992 60.5964 307.684 61.9494 307.335 63.1914C313.001 61.8331 319.153 62.6312 324.285 65.3848C326.954 66.8223 329.586 69.2694 329.39 72.2925C329.211 75.1095 326.695 77.1231 324.401 78.7616C326.611 79.1157 327.329 82.3238 326.008 84.1313C324.687 85.9389 322.229 86.5096 319.988 86.5044C315.538 86.4938 310.876 84.459 308.731 80.5585C307.24 82.5405 304.006 82.6145 302.082 81.0395C300.169 79.4592 299.519 76.6951 300 74.2639C298.567 76.5312 296.014 78.0587 293.335 78.2489C290.338 78.4603 289.086 76.7268 286.628 75.7596C284.26 74.8241 281.454 75.9181 278.89 74.9139" fill="#537F3E"/>
</g>
<g id="g192">
<path id="path194" d="M276.902 80.6535C273.059 82.8718 268.565 83.757 264.134 83.8195C265.29 85.6941 266.446 87.5687 267.607 89.4434C283.781 85.9389 300.824 87.6833 316.821 83.4446C316.884 82.5021 316.467 81.5387 315.733 80.9399C307.568 83.4498 298.892 84.2673 290.405 83.3404C294.498 82.2677 298.492 80.7941 302.288 78.9351C302.709 78.7268 303.168 78.4665 303.287 78.0134C303.407 77.5344 303.09 77.0553 302.725 76.7168C300.835 74.9463 297.747 75.2223 295.435 76.3992C293.123 77.5708 291.259 79.4663 289.056 80.8358C286.853 82.2053 283.984 83.0176 281.693 81.7939C283.219 79.737 284.807 77.5031 285.89 75.1702C286.593 73.6601 287.489 72.3687 285.432 72.7489C283.833 73.0405 282.771 75.3369 281.86 76.4408C280.469 78.128 278.798 79.5548 276.902 80.6535" fill="#537F3E"/>
</g>
<g id="g196">
<path id="path198" d="M247.116 38.0883C245.46 38.7095 243.652 40.2295 244.242 41.8961C241.121 41.9163 238 42.3759 235.006 43.2596C232.89 43.8859 230.506 45.1282 230.299 47.325C230.142 48.9663 231.395 50.5016 232.92 51.1278C234.445 51.749 236.172 51.6379 237.793 51.3298C240.374 50.84 242.869 49.8805 245.116 48.5169C245.919 50.3855 248.126 51.244 250.161 51.4005C254.504 51.7238 258.954 49.5168 261.322 45.8555C265.559 50.739 273.882 51.2945 278.72 47.0069C280.993 49.2441 284.452 50.1986 287.548 49.431C289.245 49.0118 291.002 47.8301 291.133 46.0877C291.28 44.1384 289.381 42.6839 287.593 41.9213C284.341 40.5275 280.69 40.0932 277.205 40.6689C276.665 40.7598 276.104 40.876 275.569 40.7447C274.847 40.5679 274.311 39.9871 273.746 39.5074C270.791 36.9974 266.731 37.356 263.65 39.3155C260.257 35.9167 251.171 36.5631 247.116 38.0883" fill="#537F3E"/>
</g>
<g id="g200">
<path id="path202" d="M262.204 61.9707C263.634 61.9608 265.07 61.9509 266.5 61.946C266.861 61.941 267.227 61.941 267.559 61.8074C268.014 61.6292 268.341 61.2383 268.648 60.8621C270.222 58.9518 271.805 57.0216 272.953 54.8292C274.102 52.6417 274.799 50.1375 274.463 47.6828C273.419 47.5986 272.369 47.5095 271.315 47.4204C271.32 48.9497 271.073 50.479 270.578 51.9291C270.222 52.9684 269.717 54.0027 268.851 54.6758C267.98 55.3489 266.678 55.5518 265.787 54.9133C266.396 52.1122 266.594 49.2219 266.371 46.3613C265.238 46.2772 264.104 46.1881 262.966 46.104C263.011 48.1529 263.055 50.2018 263.105 52.2507C261.457 51.4391 258.863 48.9844 257.042 47.9451C256.483 47.6283 255.84 49.5387 255.226 49.4397C258.304 50.0435 260.502 51.9934 261.843 53.6315C262.367 54.2699 264.51 61.9559 262.204 61.9707" fill="#537F3E"/>
</g>
<g id="g228">
<path id="path230" d="M251.742 67.1153L234.295 89.4419L249.656 80.841L251.742 67.1153Z" fill="#E2C57D"/>
</g>
<g id="cheese">
<g id="g212">
<path id="path214" d="M80.2891 61.971C80.4768 60.569 92.2359 39.8947 92.2359 39.8947L119.165 47.6715L117.651 67.1196L98.4949 72.6836L80.2891 61.971" fill="#EFDA81"/>
</g>
<g id="g220">
<path id="path222" d="M119.165 47.6715L117.651 67.1196L98.4946 72.6836L119.165 47.6715" fill="#E2C57D"/>
</g>
<g id="g236">
<path id="path238" d="M93.0877 50.3595C93.7614 49.9014 94.4351 49.4471 95.1127 48.989C95.3129 48.8543 95.4668 48.6772 95.5361 48.4385C95.5977 48.219 95.5669 47.9265 95.4437 47.7302C95.3167 47.5338 95.1242 47.3606 94.8932 47.3067C94.6623 47.2528 94.3889 47.2605 94.181 47.3991C93.5074 47.8533 92.8337 48.3115 92.16 48.7696C91.9598 48.9043 91.8019 49.0814 91.7365 49.3201C91.6788 49.5395 91.7018 49.8321 91.8289 50.0284C91.9559 50.2248 92.1446 50.398 92.3794 50.4519C92.6142 50.5058 92.8875 50.4981 93.0877 50.3595Z" fill="#E2C57D"/>
</g>
<g id="g240">
<path id="path242" d="M88.1137 58.7643C89.0203 58.5424 89.9231 58.3244 90.8297 58.1025C91.2963 57.9877 91.6215 57.4331 91.4723 56.9702C91.3155 56.4844 90.8411 56.2052 90.34 56.3276C89.4373 56.5456 88.5307 56.7675 87.6241 56.9893C87.1574 57.1041 86.8322 57.6588 86.9814 58.1216C87.1421 58.6074 87.6126 58.8867 88.1137 58.7643Z" fill="#E2C57D"/>
</g>
<g id="g244">
<path id="path246" d="M94.5517 63.0504C96.2899 63.1436 98.032 63 99.7353 62.6469C100.205 62.55 100.523 61.968 100.379 61.514C100.216 61.0135 99.7508 60.7691 99.2425 60.8699C98.3812 61.0484 97.8496 61.126 96.9844 61.1881C96.1735 61.2463 95.3587 61.2502 94.5517 61.2075C94.0667 61.1842 93.605 61.6498 93.6283 62.1309C93.6516 62.6508 94.0357 63.0233 94.5517 63.0504Z" fill="#E2C57D"/>
</g>
<g id="g248">
<path id="path250" d="M96.9188 55.9424C98.5251 55.4796 100.073 54.795 101.489 53.9082C101.897 53.6515 102.096 53.0758 101.82 52.648C101.555 52.2396 100.999 52.0451 100.559 52.3174C99.8942 52.7335 99.2019 53.103 98.4901 53.4259C98.3929 53.4687 98.2957 53.5115 98.2023 53.5504C98.3968 53.4687 98.1517 53.5698 98.1362 53.5776C97.9378 53.6593 97.7433 53.7332 97.5488 53.8032C97.1793 53.9393 96.8098 54.0599 96.4326 54.1688C95.9697 54.301 95.6313 54.8222 95.7869 55.3006C95.9386 55.7713 96.4248 56.0863 96.9188 55.9424" fill="#E2C57D"/>
</g>
<g id="g252">
<path id="path254" d="M110.137 54.5306C110.591 53.457 110.99 52.3636 111.341 51.2506C111.483 50.7927 111.171 50.2243 110.694 50.1177C110.192 50.0032 109.715 50.2677 109.565 50.7611C109.214 51.8742 108.811 52.9676 108.361 54.0412C108.278 54.2425 108.349 54.5701 108.456 54.7477C108.566 54.9411 108.787 55.1227 109.008 55.174C109.241 55.2253 109.506 55.2135 109.715 55.0793C109.932 54.9411 110.038 54.7635 110.137 54.5306" fill="#E2C57D"/>
</g>
<g id="g256">
<path id="path258" d="M103.262 48.5542C104.298 48.4915 105.329 48.4287 106.364 48.3659C106.843 48.3346 107.31 47.962 107.282 47.4444C107.262 46.9699 106.878 46.4914 106.364 46.5228C105.329 46.5856 104.298 46.6483 103.262 46.715C102.784 46.7424 102.321 47.115 102.341 47.6326C102.364 48.1071 102.749 48.5856 103.262 48.5542Z" fill="#E2C57D"/>
</g>
</g>
<g id="cheese_2">
<g id="g204">
<path id="path206" d="M173.12 48.234L162.791 26.4213L177.778 15.0416L190.862 17.6971L203.003 51.5748L188.968 54.8706L173.12 48.234Z" fill="#EFDA81"/>
</g>
<g id="g224">
<path id="path226" d="M190.862 17.6979C190.862 17.6979 180.145 25.4392 180.239 25.7277C180.339 26.0208 188.666 55.6514 188.666 55.6514L203.003 51.5756L190.862 17.6979" fill="#E2C57D"/>
</g>
<g id="g260">
<path id="path262" d="M168.15 28.3035C168.486 28.8254 168.78 29.3775 169.026 29.9512C168.995 29.8779 168.961 29.8046 168.931 29.7312C169.056 30.0246 169.164 30.3265 169.263 30.6284C169.336 30.857 169.478 31.0598 169.685 31.1805C169.884 31.297 170.173 31.3445 170.397 31.2712C170.854 31.1245 171.195 30.6328 171.04 30.141C170.729 29.1662 170.298 28.2301 169.737 27.3761C169.608 27.1733 169.422 27.0181 169.185 26.9534C168.965 26.893 168.672 26.9189 168.478 27.044C168.072 27.3028 167.865 27.8721 168.15 28.3035" fill="#E2C57D"/>
</g>
<g id="g264">
<path id="path266" d="M176.868 29.8352C177.304 31.1665 177.623 32.5285 177.811 33.9166C177.837 34.1261 178.059 34.3618 178.234 34.4666C178.43 34.5801 178.723 34.6281 178.946 34.5583C179.164 34.4841 179.382 34.3487 179.491 34.1348C179.618 33.8991 179.622 33.6852 179.587 33.4233C179.399 32.0396 179.085 30.6776 178.644 29.3462C178.496 28.8923 178.003 28.5474 177.514 28.7046C177.055 28.853 176.706 29.3463 176.868 29.8352" fill="#E2C57D"/>
</g>
<g id="g268">
<path id="path270" d="M173.455 38.7134C174.414 39.5278 175.372 40.3423 176.33 41.1567C176.517 41.3179 176.722 41.4268 176.983 41.4268C177.205 41.4268 177.475 41.3266 177.628 41.1567C177.946 40.8126 178.024 40.1899 177.628 39.8545C176.674 39.04 175.716 38.2256 174.758 37.4111C174.57 37.25 174.366 37.1411 174.109 37.1411C173.882 37.1411 173.612 37.2412 173.455 37.4111C173.142 37.7552 173.063 38.3824 173.455 38.7134Z" fill="#E2C57D"/>
</g>
<g id="g272">
<path id="path274" d="M180.771 46.6006C181.435 47.251 182.173 47.8312 182.964 48.319C183.162 48.4464 183.447 48.4772 183.676 48.4157C183.887 48.3542 184.12 48.1915 184.221 47.9894C184.463 47.5367 184.331 47.0005 183.891 46.728C183.557 46.5215 183.232 46.2929 182.916 46.0512C182.977 46.0996 183.039 46.1479 183.105 46.1963C182.74 45.915 182.397 45.6162 182.072 45.2953C181.9 45.1283 181.659 45.0272 181.417 45.0272C181.193 45.0272 180.925 45.1283 180.771 45.2953C180.608 45.4711 180.485 45.6997 180.499 45.9458C180.507 46.1919 180.591 46.4248 180.771 46.6006" fill="#E2C57D"/>
</g>
<g id="g276">
<path id="path278" d="M176.517 22.6514C177.579 22.4241 178.646 22.1969 179.712 21.9696C180.18 21.8691 180.499 21.2922 180.35 20.8376C180.188 20.3394 179.725 20.0859 179.218 20.1952C178.156 20.4225 177.09 20.6453 176.023 20.8726C175.556 20.9731 175.232 21.5544 175.381 22.009C175.542 22.5028 176.006 22.7563 176.517 22.6514Z" fill="#E2C57D"/>
</g>
</g>
<g id="cheese_3">
<g id="g216">
<path id="path218" d="M207.551 76.4949L224.81 58.1875L251.742 67.1153L249.656 80.841L234.296 89.4419L207.551 76.4949" fill="#EFDA81"/>
</g>
<g id="g280">
<path id="path282" d="M220.658 71.9584C220.611 71.2924 220.057 70.8127 219.381 70.9897C218.911 71.1108 218.538 71.5672 218.548 72.0562C218.552 72.7129 219.167 73.1413 219.782 73.1367C220.229 73.1367 220.685 72.9085 221.105 72.7641C222.888 72.1493 224.672 71.5392 226.456 70.9245C226.926 70.7615 227.238 70.2911 227.099 69.7881C226.973 69.3317 226.437 68.9824 225.967 69.1454C224.877 69.5227 223.783 69.8999 222.693 70.2725C222.148 70.4634 221.603 70.6497 221.053 70.836C220.802 70.9245 220.55 71.0083 220.299 71.0968C220.173 71.1387 220.047 71.1853 219.922 71.2272C219.852 71.2505 219.782 71.2738 219.712 71.2971C219.866 71.2877 220.01 71.339 220.136 71.4554C220.22 71.5905 220.294 71.7256 220.373 71.8606C220.383 71.9118 220.387 71.9584 220.392 72.0097C220.35 72.1633 220.313 72.317 220.266 72.4754C219.996 72.5732 219.731 72.671 219.465 72.7734C219.326 72.6896 219.19 72.6151 219.06 72.5359L219.079 72.5638C218.99 72.345 218.902 72.1261 218.813 71.9118V71.9584C218.85 72.4567 219.214 72.8805 219.735 72.8805C220.206 72.8805 220.69 72.4567 220.658 71.9584" fill="#E2C57D"/>
</g>
<g id="g284">
<path id="path286" d="M230.223 80.8109C231.638 79.8094 232.955 78.6763 234.135 77.4068C234.464 77.0541 234.511 76.4476 234.135 76.1043C233.778 75.7752 233.185 75.7235 232.833 76.1043C232.278 76.7015 231.695 77.2704 231.079 77.8064C230.778 78.0744 230.468 78.3283 230.153 78.5775C230.115 78.6057 230.082 78.6339 230.045 78.6621C229.955 78.7327 230.186 78.5587 230.049 78.6621C229.969 78.7233 229.889 78.7844 229.805 78.8455C229.635 78.9725 229.461 79.0947 229.292 79.217C228.897 79.4944 228.676 80.0351 228.963 80.4771C229.212 80.8674 229.8 81.1071 230.223 80.8109" fill="#E2C57D"/>
</g>
<g id="g288">
<path id="path290" d="M232.142 67.1207C234.178 68.1812 236.218 69.2416 238.249 70.302C238.694 70.5293 239.252 70.4157 239.513 69.9707C239.754 69.5588 239.626 68.9387 239.181 68.7114C237.146 67.651 235.11 66.5905 233.074 65.5301C232.629 65.3029 232.071 65.4165 231.815 65.8615C231.569 66.2781 231.702 66.8935 232.142 67.1207Z" fill="#E2C57D"/>
</g>
</g>
<g id="cheese_4">
<g id="g208">
<path id="path210" d="M311.102 51.5767C311.297 50.8924 329.4 31.5461 329.4 31.5461L351.125 36.8471L353.4 55.6556L341.071 65.7578C341.071 65.7578 331.377 62.8412 329.4 63.2214C327.417 63.6016 311.102 51.5767 311.102 51.5767Z" fill="#EFDA81"/>
</g>
<g id="g232">
<path id="path234" d="M351.125 36.8471L328.031 62.8249L341.072 65.7578L353.401 55.6556L351.125 36.8471Z" fill="#E2C57D"/>
</g>
<g id="g292">
<path id="path294" d="M319.667 50.8759C321.419 50.1132 323.165 49.3505 324.912 48.5825C325.359 48.3932 325.49 47.7093 325.243 47.3253C324.943 46.8625 324.459 46.7888 323.986 46.994C322.234 47.7567 320.488 48.5194 318.742 49.2821C318.3 49.4767 318.163 50.1605 318.41 50.5445C318.705 51.0021 319.199 51.081 319.667 50.8759Z" fill="#E2C57D"/>
</g>
<g id="g296">
<path id="path298" d="M328.567 57.674C330.094 56.3431 331.356 54.6781 332.221 52.8434C332.427 52.4086 332.358 51.8305 331.892 51.5813C331.484 51.3639 330.853 51.4488 330.635 51.9101C330.222 52.7903 329.718 53.6122 329.14 54.3864C329.087 54.4607 329.087 54.4554 329.145 54.3864C329.103 54.4394 329.066 54.4925 329.023 54.5402C328.949 54.6357 328.875 54.7258 328.8 54.8159C328.647 54.9909 328.493 55.1712 328.328 55.3409C327.994 55.7015 327.634 56.0462 327.263 56.3696C326.897 56.6878 326.913 57.3559 327.263 57.674C327.65 58.0293 328.175 58.0134 328.567 57.674" fill="#E2C57D"/>
</g>
<g id="g300">
<path id="path302" d="M325.052 43.8556C326.891 44.1576 328.729 44.4543 330.568 44.7564C331.045 44.8305 331.585 44.6345 331.702 44.1099C331.803 43.6701 331.564 43.0607 331.061 42.9759C329.222 42.6792 327.384 42.3825 325.545 42.0805C325.073 42.0063 324.527 42.2023 324.411 42.7269C324.31 43.1667 324.543 43.7761 325.052 43.8556Z" fill="#E2C57D"/>
</g>
<g id="g304">
<path id="path306" d="M333.505 48.6748C334.733 47.9012 335.954 47.1222 337.176 46.3485C337.582 46.0871 337.785 45.5162 337.502 45.0894C337.24 44.6786 336.685 44.4811 336.243 44.7586C335.026 45.5322 333.799 46.3112 332.577 47.0848C332.172 47.3409 331.969 47.9172 332.246 48.344C332.513 48.7495 333.073 48.9522 333.505 48.6748" fill="#E2C57D"/>
</g>
<g id="g308">
<path id="path310" d="M340.651 42.864C341.424 42.6599 342.198 42.4557 342.971 42.2515C343.433 42.128 343.761 41.5908 343.611 41.118C343.455 40.6399 342.977 40.3445 342.477 40.4734C341.703 40.6775 340.935 40.887 340.162 41.0912C339.694 41.2147 339.367 41.7519 339.522 42.2247C339.673 42.7028 340.156 42.9983 340.651 42.864Z" fill="#E2C57D"/>
</g>
<g id="g312">
<path id="path314" d="M332.264 36.9361C332.312 36.9414 332.36 36.9468 332.402 36.9521C332.28 36.9361 332.264 36.9361 332.37 36.9521C332.45 36.9628 332.53 36.9734 332.61 36.9894C332.792 37.0214 332.962 37.0534 333.138 37.0961C333.458 37.1654 333.773 37.2561 334.087 37.3627C334.247 37.416 334.402 37.4693 334.557 37.528C334.594 37.544 334.893 37.656 334.663 37.5706C334.727 37.5973 334.791 37.6293 334.855 37.656C335.175 37.8053 335.495 37.9652 335.799 38.1465C336.215 38.3865 336.828 38.2532 337.058 37.816C337.292 37.3734 337.175 36.8134 336.727 36.5575C335.351 35.7523 333.842 35.2777 332.264 35.0964C331.784 35.0377 331.325 35.5603 331.341 36.0135C331.368 36.5628 331.746 36.8774 332.264 36.9361" fill="#E2C57D"/>
</g>
</g>
<g id="g316">
<path id="path318" d="M188.414 78.5352C189.698 79.3655 190.914 80.3617 191.726 81.6542C192.538 82.9466 192.902 84.5847 192.422 86.0387C191.565 88.6057 188.58 89.6693 185.973 90.3918C189.478 91.2444 193.355 90.4187 196.209 88.2107C197.058 87.5555 197.83 86.7702 198.319 85.8188C199.598 83.346 198.705 80.1732 196.82 78.1313C194.935 76.0849 192.251 74.9675 189.59 74.1597C185.753 72.9974 181.651 72.3512 177.72 73.15C176.338 73.4327 176.122 74.2898 177.155 75.0797C178.075 75.7798 179.309 75.2816 180.332 75.3579C183.105 75.5554 186.121 77.0453 188.414 78.5352" fill="#5C8E46"/>
</g>
<g id="g320">
<path id="path322" d="M186.212 56.8716C192.258 58.0424 198.588 57.7634 204.506 56.0575C205.727 55.7053 206.985 55.2617 207.854 54.3333C208.723 53.4095 209.061 51.8682 208.288 50.862C207.653 50.0434 206.372 49.6272 206.258 48.5936C208.179 47.871 210.539 48.31 211.938 49.8101C213.338 51.3102 213.58 53.8211 212.35 55.4629C211.577 56.4874 210.379 57.0911 209.189 57.5851C201.378 60.8277 192.505 60.6996 184.241 58.8931C182.466 58.5043 180.66 58.0195 179.196 56.9448C178.748 56.6109 178.309 56.1764 178.254 55.623C178.172 54.8181 178.991 54.1458 179.796 54.1001C181.941 53.9766 183.999 56.4417 186.212 56.8716" fill="#5C8E46"/>
</g>
<g id="g324">
<path id="path326" d="M305.186 47.9917C304.025 49.7076 303.895 52.2479 305.352 53.7202C306.094 54.4667 307.115 54.8451 308.069 55.2909C308.354 55.4309 308.68 55.6383 308.675 55.9597C308.665 56.2863 308.312 56.4781 308.001 56.5766C305.046 57.5409 301.868 56.2811 299.012 55.0473C297.607 54.4355 296.176 53.8083 295.051 52.7662C293.926 51.7242 293.159 50.1742 293.455 48.6708C293.709 47.3488 294.73 46.3016 295.829 45.524C299.712 42.7919 304.766 42.5794 309.515 42.4965C311.687 42.4653 313.118 43.9013 310.609 44.8189C308.468 45.5966 306.622 45.8713 305.186 47.9917" fill="#5C8E46"/>
</g>
<g id="g328">
<path id="path330" d="M18.3954 241.658C16.2383 246.673 17.8958 253.373 22.7328 255.894C18.2908 257.01 14.8054 260.905 13.6746 265.347C12.5476 269.789 13.6088 274.626 16.0369 278.515C20.8855 286.289 31.365 290.013 40.032 287.044C48.699 284.076 54.6939 274.708 53.7645 265.595C58.1793 267.76 63.9534 264.941 65.9091 260.421C67.861 255.906 66.5288 250.461 63.5623 246.534C70.5719 248.858 78.6696 247.58 84.618 243.211C88.0957 240.659 90.946 236.833 91.1241 232.523C91.3061 228.212 88.0686 223.678 83.7544 223.495C86.628 225.517 90.8027 224.773 93.4942 222.527C96.1934 220.277 97.6379 216.869 98.5054 213.469C99.0089 211.486 99.3458 209.38 98.8075 207.408C97.9555 204.275 95.1013 202.114 92.193 200.678C87.3289 198.281 81.698 197.243 76.3886 198.366C71.0831 199.493 66.188 202.916 63.8218 207.796C57.3041 203.385 48.3466 205.894 41.5811 209.914C37.7007 212.222 33.9713 215.103 31.8607 219.096C29.599 223.375 32.2983 228.824 29.3241 232.228C25.9355 236.101 20.7732 236.132 18.3954 241.658" fill="#629B4B"/>
</g>
<g id="g332">
<path id="path334" d="M92.1923 200.662C91.2048 200.178 90.1901 199.748 89.1445 199.38C89.7525 200.186 90.2211 201.077 90.4922 202.064C91.0305 204.035 90.6936 206.142 90.1901 208.125C89.3227 211.525 87.8743 214.937 85.1789 217.183C83.444 218.628 81.0932 219.445 78.8781 219.309C81.345 220.963 82.9366 224.123 82.8088 227.178C82.6268 231.489 79.7804 235.315 76.3028 237.867C70.3543 242.239 62.2566 243.517 55.247 241.19C58.2135 245.117 59.5418 250.562 57.59 255.077C55.6382 259.597 49.864 262.416 45.4453 260.251C46.3786 269.367 40.3837 278.731 31.7167 281.701C27.4064 283.177 22.6469 282.998 18.3599 281.49C23.7584 287.175 32.5648 289.587 40.0313 287.029C48.6984 284.061 54.6933 274.692 53.7638 265.58C58.1787 267.745 63.9528 264.925 65.9085 260.406C67.8603 255.89 66.5281 250.445 63.5617 246.519C70.5712 248.842 78.669 247.564 84.6174 243.196C88.095 240.644 90.9453 236.818 91.1235 232.507C91.2513 229.452 89.6635 226.292 87.1927 224.638C89.4117 224.774 91.7625 223.956 93.4935 222.512C96.1928 220.266 97.6373 216.854 98.5048 213.454C99.0082 211.471 99.3451 209.364 98.8068 207.393C97.9548 204.26 95.1007 202.099 92.1923 200.662Z" fill="#588742"/>
</g>
<path id="path336" d="M21.6564 273.328C21.5422 271.585 21.6896 270.111 22.128 268.479C22.2533 268.014 21.9733 267.458 21.4832 267.347C21.0005 267.237 20.4847 267.491 20.352 267.989C19.8841 269.724 19.6962 271.537 19.8141 273.328C19.8472 273.807 20.2157 274.271 20.7352 274.249C21.2069 274.227 21.6933 273.843 21.6564 273.328" fill="#7FBC5E"/>
<path id="path338" d="M20.9896 264.58C21.0781 264.51 21.1665 264.44 21.2549 264.367C21.3065 264.326 21.3434 264.3 21.2697 264.355C21.3139 264.322 21.3581 264.285 21.4023 264.252C21.5829 264.116 21.7671 263.983 21.9514 263.854C22.3309 263.585 22.7214 263.327 23.1157 263.084C23.9005 262.605 24.7149 262.182 25.5513 261.809C25.9935 261.61 26.1335 260.932 25.8829 260.546C25.5881 260.092 25.0944 260.008 24.6227 260.218C22.843 261.01 21.1997 262.049 19.6853 263.276C19.3131 263.582 19.3463 264.267 19.6853 264.58C20.0869 264.945 20.588 264.905 20.9896 264.58" fill="#7FBC5E"/>
<path id="path340" d="M27.9653 269.057C28.0022 269.009 28.039 268.957 28.0758 268.91C28.0279 268.972 27.98 269.035 27.9321 269.097C28.2674 268.666 28.6543 268.279 29.0854 267.944C29.0228 267.992 28.9602 268.04 28.8975 268.088C29.2033 267.852 29.5276 267.646 29.8703 267.469C30.2977 267.248 30.4598 266.61 30.1982 266.209C29.9182 265.77 29.3986 265.641 28.938 265.877C27.91 266.411 27.0515 267.196 26.3735 268.128C26.2409 268.309 26.2224 268.629 26.2814 268.84C26.3404 269.053 26.5062 269.285 26.7051 269.389C26.9188 269.503 27.1768 269.558 27.4126 269.481C27.4863 269.451 27.56 269.422 27.6337 269.389C27.7737 269.307 27.8842 269.197 27.9653 269.057" fill="#7FBC5E"/>
<path id="path342" d="M26.8926 276.33C27.18 276.231 27.4711 276.142 27.7696 276.072C27.8985 276.043 28.0275 276.017 28.1564 275.991C28.2412 275.977 28.3296 275.965 28.4144 275.951C28.606 275.918 28.2191 275.969 28.4291 275.947C29.015 275.881 29.6045 275.873 30.1941 275.925C30.6768 275.969 31.1374 275.472 31.1153 275.004C31.0932 274.469 30.71 274.13 30.1941 274.083C28.9229 273.968 27.6074 274.134 26.4025 274.554C25.9456 274.713 25.5993 275.192 25.7577 275.685C25.9014 276.135 26.4025 276.5 26.8926 276.33" fill="#7FBC5E"/>
<path id="path344" d="M17.5372 273.32C17.7399 272.082 17.7141 270.844 17.423 269.621C17.3124 269.149 16.7524 268.829 16.2918 268.976C15.8017 269.135 15.529 269.606 15.647 270.111C15.7133 270.387 15.7649 270.667 15.8017 270.951C15.7907 270.87 15.7833 270.785 15.7722 270.704C15.8607 271.415 15.857 272.127 15.7649 272.834C15.7759 272.753 15.787 272.672 15.798 272.591C15.787 272.672 15.7723 272.753 15.7612 272.834C15.717 273.085 15.7207 273.313 15.8533 273.541C15.9639 273.733 16.1849 273.917 16.4023 273.965C16.8482 274.068 17.4525 273.829 17.5372 273.32" fill="#7FBC5E"/>
<path id="path346" d="M27.718 243.828C27.8064 243.739 27.8985 243.655 27.998 243.581C27.9354 243.629 27.8727 243.677 27.8101 243.725C27.9759 243.599 28.1564 243.496 28.348 243.411C28.2744 243.445 28.2007 243.474 28.127 243.507C28.3444 243.415 28.5728 243.352 28.8086 243.319C28.7276 243.33 28.6428 243.341 28.5618 243.352C28.7976 243.323 29.0334 243.323 29.2655 243.356C29.1845 243.345 29.1034 243.334 29.0223 243.323C29.2287 243.352 29.4277 243.408 29.6193 243.485C29.5456 243.456 29.4756 243.422 29.4019 243.393L29.4756 243.426C29.7077 243.533 29.9325 243.588 30.1867 243.518C30.4004 243.459 30.6325 243.297 30.7357 243.095C30.8499 242.881 30.9052 242.623 30.8278 242.387C30.7615 242.173 30.6215 241.934 30.4078 241.834C30.0135 241.658 29.6561 241.554 29.225 241.506C28.8786 241.466 28.536 241.503 28.1933 241.565C27.53 241.683 26.8852 242.041 26.4136 242.527C26.082 242.873 26.0451 243.489 26.4136 243.828C26.7784 244.163 27.3606 244.2 27.718 243.828" fill="#7FBC5E"/>
<path id="path348" d="M28.2155 248.78C28.2634 248.799 28.315 248.821 28.3666 248.843C28.2929 248.81 28.2192 248.78 28.1455 248.747C28.5656 248.928 28.9561 249.156 29.3172 249.436C29.2546 249.388 29.1919 249.34 29.133 249.293C29.4904 249.573 29.811 249.893 30.091 250.254C30.0431 250.192 29.9952 250.129 29.9473 250.066C30.0726 250.232 30.1868 250.402 30.2937 250.579C30.5405 250.991 31.1338 251.179 31.5538 250.91C31.9702 250.641 32.1471 250.092 31.8854 249.65C31.5428 249.079 31.1043 248.548 30.5958 248.117C30.021 247.635 29.402 247.277 28.7019 247.004C28.4956 246.92 28.1787 246.986 27.9944 247.097C27.8028 247.207 27.6186 247.428 27.5707 247.646C27.5154 247.881 27.5265 248.147 27.6628 248.357C27.7992 248.57 27.9797 248.688 28.2155 248.78" fill="#7FBC5E"/>
<path id="path350" d="M32.1799 256.857C33.1305 257.148 34.0812 257.439 35.0318 257.73C35.4961 257.87 36.0599 257.561 36.1667 257.085C36.2809 256.588 36.0156 256.102 35.5219 255.954C34.5712 255.663 33.6206 255.372 32.6699 255.081C32.2094 254.941 31.6456 255.247 31.5388 255.722C31.4245 256.223 31.6861 256.706 32.1799 256.857" fill="#7FBC5E"/>
<path id="path352" d="M40.596 255.929C41.9225 255.501 43.1384 254.757 44.1001 253.747C44.4317 253.397 44.4723 252.785 44.1001 252.443C43.739 252.111 43.1495 252.071 42.7958 252.443C42.6189 252.631 42.4346 252.808 42.2393 252.973C42.1988 253.007 42.162 253.04 42.1214 253.073C42.0662 253.117 41.8672 253.25 42.1067 253.088C42.0072 253.154 41.9114 253.231 41.8156 253.298C41.4066 253.581 40.9682 253.817 40.5113 254.012C40.5849 253.983 40.6586 253.95 40.7323 253.92C40.526 254.005 40.316 254.083 40.1059 254.153C39.6454 254.3 39.3027 254.797 39.4611 255.284C39.6085 255.744 40.1022 256.087 40.596 255.929Z" fill="#7FBC5E"/>
<path id="path354" d="M38.2448 250.191C39.0002 249.804 39.6265 249.215 40.1092 248.518C40.1756 248.415 40.2124 248.301 40.2198 248.179C40.2456 248.054 40.2419 247.933 40.2013 247.811C40.1424 247.597 39.9803 247.365 39.7776 247.258C39.5639 247.148 39.306 247.089 39.0701 247.166C38.9964 247.199 38.9228 247.229 38.8491 247.258C38.7127 247.343 38.6022 247.45 38.5174 247.59C38.4769 247.653 38.4327 247.712 38.3848 247.774C38.4327 247.712 38.4806 247.649 38.5285 247.586C38.3111 247.863 38.0642 248.113 37.7842 248.331C37.8469 248.283 37.9095 248.235 37.9721 248.187C37.7658 248.345 37.5447 248.482 37.3125 248.6C37.1136 248.703 36.9478 248.942 36.8925 249.152C36.8299 249.373 36.8557 249.664 36.9846 249.86C37.1099 250.059 37.2978 250.232 37.5336 250.283C37.7842 250.342 38.0163 250.309 38.2448 250.191" fill="#7FBC5E"/>
<path id="path356" d="M36.2188 228.511C36.3146 226.9 36.4067 225.287 36.4989 223.676C36.5283 223.197 36.0567 222.737 35.5777 222.755C35.0545 222.781 34.686 223.161 34.6565 223.676C34.5644 225.287 34.4723 226.9 34.3765 228.511C34.3507 228.993 34.8223 229.454 35.2977 229.432C35.8209 229.41 36.1894 229.027 36.2188 228.511Z" fill="#7FBC5E"/>
<path id="path358" d="M40.5148 218.47C40.9053 218.013 41.3401 217.597 41.8155 217.228C41.7528 217.276 41.6902 217.324 41.6276 217.372C41.9371 217.136 42.2613 216.915 42.6003 216.72C42.7993 216.602 42.9614 216.392 43.024 216.167C43.083 215.946 43.0572 215.655 42.9319 215.46C42.6592 215.04 42.1139 214.866 41.6681 215.128C40.7506 215.666 39.9068 216.359 39.2104 217.166C39.0519 217.354 38.9414 217.564 38.9414 217.818C38.9414 218.043 39.0409 218.315 39.2104 218.47C39.3872 218.629 39.6194 218.75 39.8626 218.739C40.0984 218.728 40.3563 218.654 40.5148 218.47" fill="#7FBC5E"/>
<path id="path360" d="M41.1453 224.911C41.8711 224.69 42.597 224.473 43.3229 224.252C43.5477 224.185 43.754 224.034 43.8756 223.828C43.9899 223.632 44.0378 223.341 43.9677 223.12C43.8167 222.652 43.3266 222.324 42.8329 222.475C42.107 222.697 41.3811 222.914 40.6552 223.135C40.4304 223.201 40.2241 223.352 40.1062 223.559C39.9883 223.754 39.9404 224.045 40.0141 224.266C40.1615 224.734 40.6515 225.062 41.1453 224.911" fill="#7FBC5E"/>
<path id="path362" d="M41.2778 234.085C41.9189 234.539 42.56 234.995 43.2012 235.449C43.3891 235.578 43.7023 235.6 43.9123 235.541C44.126 235.482 44.3581 235.316 44.4613 235.117C44.5755 234.903 44.6308 234.645 44.5571 234.41C44.524 234.336 44.4945 234.262 44.4613 234.189C44.3803 234.048 44.2697 233.938 44.1334 233.857C43.4923 233.404 42.8511 232.95 42.2063 232.494C42.0221 232.365 41.7089 232.342 41.4989 232.401C41.2851 232.46 41.053 232.626 40.9462 232.825C40.8356 233.039 40.7767 233.297 40.854 233.536C40.8872 233.61 40.9167 233.68 40.9462 233.754C41.0309 233.894 41.1414 234.004 41.2778 234.085" fill="#7FBC5E"/>
<path id="path364" d="M52.6085 236.975C52.988 236.805 53.3454 236.599 53.6734 236.348C54.0603 236.057 54.4214 235.748 54.7309 235.376C54.893 235.184 54.9999 234.981 54.9999 234.723C54.9999 234.499 54.9004 234.23 54.7309 234.075C54.5577 233.913 54.3256 233.795 54.0787 233.802C53.8502 233.813 53.585 233.891 53.4302 234.075C53.1796 234.37 52.9033 234.639 52.5975 234.875C52.6601 234.827 52.7191 234.779 52.7817 234.731C52.4427 234.989 52.0742 235.21 51.68 235.383C51.481 235.471 51.3115 235.737 51.2562 235.936C51.1973 236.153 51.2231 236.448 51.3484 236.643C51.4773 236.842 51.6652 237.015 51.9011 237.067C51.9821 237.078 52.0632 237.089 52.1442 237.1C52.31 237.1 52.4648 237.056 52.6085 236.975" fill="#7FBC5E"/>
<g id="g366">
<path id="path368" d="M68.778 227.832C69.5789 228.095 70.376 228.358 71.1768 228.621C71.6328 228.77 72.2038 228.447 72.3113 227.976C72.4263 227.468 72.1556 227.005 71.6662 226.845C70.8691 226.578 70.0683 226.319 69.2674 226.056C68.8114 225.904 68.2442 226.23 68.1366 226.697C68.018 227.205 68.2886 227.668 68.778 227.832Z" fill="#7FBC5E"/>
</g>
<path id="path370" d="M51.5621 210.902C52.5532 210.916 53.5555 210.78 54.5061 210.504C54.9667 210.371 55.302 209.852 55.1472 209.373C54.9962 208.901 54.5098 208.584 54.0161 208.728C53.5702 208.857 53.117 208.953 52.6564 209.015C52.7375 209.004 52.8185 208.993 52.8996 208.982C52.4574 209.041 52.0116 209.067 51.5621 209.059C51.0831 209.056 50.6188 209.491 50.6409 209.981C50.6667 210.485 51.0462 210.898 51.5621 210.902Z" fill="#7FBC5E"/>
<path id="path372" d="M52.914 220.405C52.9693 220.445 53.0209 220.482 53.0761 220.523C53.0135 220.475 52.9508 220.427 52.8882 220.379C53.2051 220.626 53.4888 220.913 53.7357 221.23C53.6878 221.167 53.6399 221.105 53.592 221.042C53.7246 221.215 53.8462 221.396 53.9568 221.584C54.071 221.783 54.2847 221.945 54.5058 222.008C54.7269 222.067 55.0216 222.041 55.2169 221.912C55.4122 221.787 55.5854 221.599 55.6407 221.363C55.6959 221.12 55.6738 220.873 55.5485 220.652C55.3385 220.291 55.0806 219.948 54.7969 219.638C54.5131 219.325 54.1852 219.06 53.8426 218.813C53.7394 218.747 53.6252 218.71 53.4999 218.706C53.3783 218.677 53.2567 218.684 53.1351 218.721C52.9214 218.78 52.6892 218.946 52.5824 219.145C52.4718 219.358 52.4129 219.616 52.4903 219.856C52.5197 219.926 52.5529 219.999 52.5824 220.073C52.6671 220.213 52.774 220.324 52.914 220.405" fill="#7FBC5E"/>
<g id="g374">
<path id="path376" d="M69.0505 214.298C69.3095 213.392 69.6055 212.496 69.9274 211.612C70.2677 210.698 70.5674 209.98 70.9596 209.13C71.1594 208.693 71.0965 208.116 70.6303 207.868C70.2233 207.653 69.5833 207.731 69.3687 208.197C68.5325 210.014 67.8259 211.886 67.2746 213.81C67.1414 214.272 67.4374 214.835 67.9221 214.942C68.4105 215.053 68.9099 214.794 69.0505 214.298Z" fill="#7FBC5E"/>
</g>
<g id="g378">
<path id="path380" d="M74.8943 205.062C75.3343 204.908 75.7743 204.784 76.2294 204.69C76.425 204.652 76.6205 204.615 76.8161 204.588C76.7333 204.6 76.7521 204.596 76.865 204.581C76.9326 204.573 76.9966 204.566 77.0605 204.562C77.1621 204.551 77.2598 204.543 77.3614 204.536C77.7864 204.509 78.2189 204.506 78.6476 204.532C79.1628 204.562 79.3734 204.592 79.8736 204.694C80.3437 204.791 80.889 204.558 81.0056 204.051C81.1109 203.592 80.8665 203.02 80.3625 202.919C78.3806 202.512 76.3159 202.618 74.4054 203.287C73.9504 203.445 73.6006 203.923 73.7623 204.419C73.909 204.867 74.4092 205.231 74.8943 205.062" fill="#7FBC5E"/>
</g>
<g id="g382">
<path id="path384" d="M80.3338 204.577C81.5192 204.577 81.5192 202.733 80.3338 202.733C79.1446 202.733 79.1446 204.577 80.3338 204.577Z" fill="#7FBC5E"/>
</g>
<g id="g386">
<path id="path388" d="M75.2686 210.756C76.1345 210.999 77.0004 211.243 77.8664 211.483C78.3312 211.614 78.8897 211.326 78.9984 210.842C79.1109 210.351 78.8522 209.849 78.3537 209.706C77.4915 209.466 76.6256 209.223 75.7597 208.983C75.2949 208.852 74.7326 209.14 74.6276 209.624C74.5114 210.111 74.7701 210.617 75.2686 210.756" fill="#7FBC5E"/>
</g>
<g id="g390">
<path id="path392" d="M85.746 207.255C86.2552 206.533 86.7643 205.815 87.2773 205.093C87.4064 204.911 87.4292 204.595 87.3722 204.383C87.3115 204.17 87.1443 203.938 86.9467 203.835C86.7339 203.721 86.4755 203.664 86.2362 203.74C85.9968 203.816 85.8334 203.961 85.6852 204.166C85.1761 204.884 84.6669 205.602 84.154 206.324C84.021 206.507 84.002 206.822 84.0628 207.035C84.116 207.247 84.2832 207.479 84.4808 207.582C84.6936 207.696 84.9557 207.753 85.1913 207.677C85.4307 207.597 85.5979 207.456 85.746 207.255Z" fill="#7FBC5E"/>
</g>
<g id="g394">
<path id="path396" d="M48.2827 275.168C48.2827 275.168 59.5322 267.078 74.8137 269.786C90.0993 272.492 108.514 284.642 108.514 284.642C108.514 284.642 112.852 288.422 119.09 281.44C125.327 274.458 124.436 268.82 124.436 268.82C124.436 268.82 111.066 261.663 102.554 250.385C94.0467 239.107 90.6718 218.479 90.6718 218.479L83.9181 222.467C83.9181 222.467 85.7205 234.664 88.43 240.482C91.1355 246.304 94.0789 246.599 92.7806 249.046C91.4823 251.498 79.1804 241.813 79.1804 241.813L74.0033 243.381C74.0033 243.381 82.9383 250.099 81.8658 253.332C80.7933 256.566 62.0845 251.292 62.0845 251.292L61.5038 257.578C61.5038 257.578 71.8905 257.429 71.7614 259.707C71.6364 261.985 51.9801 267.106 51.9801 267.106L48.2827 275.168" fill="#588742"/>
</g>
<g id="g398">
<path id="path400" d="M94.9301 253.426C94.5577 254.243 94.9021 255.244 95.5107 255.905C96.1193 256.569 96.9482 256.978 97.733 257.418C104.8 261.382 109.649 268.711 117.029 272.05C118.106 272.537 119.571 272.845 120.3 271.916C120.769 271.319 120.68 270.426 120.284 269.776C119.892 269.127 119.259 268.669 118.63 268.241C114.426 265.366 109.901 262.996 105.685 260.145C103.607 258.74 101.589 257.222 99.7751 255.484C98.9302 254.675 96.1473 250.775 94.9301 253.426" fill="#71AD55"/>
</g>
</g>
</svg>
